<?xml version="1.0" standalone="no"?>
<!DOCTYPE svg PUBLIC "-//W3C//DTD SVG 20010904//EN"
 "http://www.w3.org/TR/2001/REC-SVG-20010904/DTD/svg10.dtd">
<svg version="1.0" xmlns="http://www.w3.org/2000/svg"
 width="200.000000pt" height="200.000000pt" viewBox="0 0 200.000000 200.000000"
 preserveAspectRatio="xMidYMid meet">
<metadata>
Created by potrace 1.14, written by Peter Selinger 2001-2017
</metadata>
<g transform="translate(0.000000,200.000000) scale(0.100000,-0.100000)"
fill="#000000" stroke="none">
<path d="M0 1000 l0 -1000 159 0 160 0 -15 28 c-12 24 -12 28 1 38 19 14 20
28 1 21 -10 -4 -14 5 -14 34 -1 35 2 39 24 39 14 0 23 4 20 9 -3 5 -16 7 -29
5 -20 -4 -20 -4 2 6 14 6 45 8 70 5 34 -5 42 -4 31 4 -8 6 -53 11 -100 12 -83
1 -84 1 -43 12 l43 12 -20 32 c-17 28 -17 34 -5 46 8 8 11 17 8 21 -4 3 11 7
33 7 38 1 38 2 -12 11 -43 8 -51 12 -47 27 3 10 14 23 26 29 21 10 20 11 -8
12 l-30 1 30 14 c17 7 24 14 18 14 -7 1 -13 6 -13 11 0 6 21 11 48 12 l47 1
-50 6 -50 6 68 24 c37 13 67 28 67 33 0 6 9 8 20 5 10 -3 24 1 31 9 9 11 6 14
-20 14 l-31 0 -1 93 c0 79 -11 214 -24 297 -2 14 -4 31 -4 38 -1 7 -6 10 -13
6 -6 -4 -8 -3 -4 4 3 6 -3 33 -14 61 -11 28 -24 75 -28 105 -7 44 -6 55 7 63
13 8 17 38 19 172 l4 161 42 0 c41 0 42 -1 54 -45 7 -25 12 -80 12 -123 0 -42
4 -81 8 -87 13 -18 51 -15 62 5 6 11 16 17 25 14 8 -4 18 1 21 10 3 9 10 13
15 10 5 -3 9 0 9 5 0 6 7 11 15 11 9 0 18 7 22 16 3 8 12 13 19 10 9 -3 26 11
45 37 41 56 73 73 102 54 29 -19 72 -17 73 3 1 8 2 22 2 30 1 8 15 21 31 28
25 11 34 11 60 -3 17 -8 31 -18 31 -21 0 -2 -9 0 -19 6 -47 24 -92 5 -88 -38
1 -20 2 -20 20 -4 31 28 77 12 98 -32 8 -19 8 -18 -7 2 -9 12 -26 22 -38 22
-20 0 -20 -1 4 -20 14 -11 21 -20 16 -20 -4 0 6 -16 23 -36 35 -39 81 -129 80
-153 0 -12 -2 -11 -8 3 -5 13 -10 16 -15 8 -9 -15 -36 -4 -36 16 0 12 -3 13
-12 4 -8 -8 -17 -8 -30 -1 -10 5 -23 7 -28 4 -6 -4 -13 0 -16 9 -3 8 -12 12
-19 10 -11 -5 -35 23 -35 40 0 3 13 12 30 21 35 18 81 20 99 3 10 -11 11 -10
6 4 -4 9 -12 19 -19 21 -18 7 -128 2 -151 -6 -11 -5 -8 -1 8 8 32 18 36 29 7
20 -11 -4 -20 -2 -20 4 0 6 5 11 12 11 6 0 9 3 6 6 -4 3 -16 1 -27 -6 -14 -7
-21 -7 -21 0 0 5 5 10 11 10 5 0 7 5 4 10 -3 6 -15 10 -25 10 -10 0 -21 6 -24
13 -4 8 -9 7 -18 -7 -44 -64 -67 -105 -73 -133 -6 -30 -25 -47 -25 -22 0 5 -5
7 -11 4 -7 -5 -4 -15 7 -32 9 -14 20 -38 24 -54 7 -22 5 -27 -6 -22 -10 4 -14
-3 -14 -21 0 -15 -7 -29 -15 -32 -8 -4 -15 -18 -15 -33 0 -20 -2 -23 -10 -11
-8 12 -10 11 -10 -7 0 -13 -4 -23 -10 -23 -5 0 -10 -16 -10 -36 0 -30 -3 -34
-14 -25 -17 14 -25 -22 -27 -113 -1 -53 -3 -56 -9 -26 -7 31 -8 28 -9 -25 -2
-56 -13 -163 -26 -244 -3 -18 -7 -80 -9 -138 -3 -93 -2 -102 12 -91 13 11 14
11 7 -2 -39 -69 -116 -138 -168 -151 -29 -7 -28 -8 18 -8 57 -1 170 -17 140
-20 -19 -2 -19 -2 3 -14 12 -7 19 -16 16 -20 -4 -4 -2 -7 5 -7 13 0 13 -87 0
-95 -3 -3 -4 -16 -1 -30 l4 -25 520 0 c452 0 519 2 508 14 -6 8 -17 13 -25 10
-7 -3 -16 0 -21 7 -5 9 1 11 24 6 19 -4 32 -2 32 3 0 6 -8 10 -19 10 -10 0
-24 6 -30 14 -10 12 -8 13 11 8 22 -5 22 -5 6 12 -10 9 -22 35 -28 56 -6 22
-15 40 -20 40 -6 0 -9 3 -9 8 4 21 -5 29 -43 40 -24 6 -61 11 -83 11 -56 -1
-109 14 -190 54 l-70 35 39 10 c41 12 64 9 27 -3 -38 -12 -22 -22 22 -14 23 4
140 8 259 9 l218 0 6 -25 c4 -15 -1 -44 -10 -70 -10 -24 -17 -54 -17 -67 -1
-13 -5 -42 -11 -65 -8 -33 -15 -43 -31 -43 -11 0 -17 -3 -14 -7 4 -3 2 -12 -4
-20 -9 -10 -8 -13 5 -13 10 0 14 -4 11 -10 -4 -7 62 -10 189 -10 l196 0 0
1000 0 1000 -180 0 -180 0 0 -60 0 -60 -45 0 -45 0 0 60 0 60 -550 0 -550 0
-2 -22 c-1 -13 -2 -39 -2 -58 -1 -34 -2 -35 -43 -35 l-43 0 0 58 0 57 -180 0
-180 0 0 -1000z m439 786 c16 -10 14 -73 -3 -79 -8 -3 -16 -21 -18 -39 -2 -28
-7 -34 -30 -36 l-28 -3 0 86 0 87 34 -5 c19 -2 39 -8 45 -11z m1199 -74 c3
-77 2 -82 -18 -82 -11 0 -20 5 -20 10 0 6 -7 10 -16 10 -8 0 -13 4 -10 8 3 5
-2 21 -10 36 -7 16 -14 43 -14 61 0 29 4 34 28 38 56 9 57 8 60 -81z m-401
-94 c57 -57 103 -106 103 -111 0 -4 -14 0 -30 8 -36 19 -53 12 -45 -18 5 -17
4 -19 -4 -7 -6 8 -11 25 -11 37 0 23 -16 40 -22 23 -2 -6 -15 1 -30 15 -30 28
-64 34 -54 10 3 -8 2 -25 -3 -37 -7 -20 -9 -18 -26 20 -15 33 -26 44 -54 52
-66 18 -75 12 -38 -23 13 -12 29 -35 36 -52 10 -27 10 -28 -3 -10 -29 39 -47
53 -79 59 -26 6 -36 2 -54 -19 -13 -14 -23 -22 -23 -18 0 27 185 173 220 173
8 0 61 -46 117 -102z m403 -217 c0 -129 3 -161 15 -171 29 -24 12 -105 -47
-220 l-33 -65 -3 -192 -4 -193 -25 0 c-22 0 -24 3 -19 25 5 18 3 23 -7 19 -7
-2 -19 6 -27 20 -7 14 -23 29 -34 32 -12 4 -26 14 -32 22 -12 17 -56 13 -119
-11 -21 -8 -45 -12 -53 -10 -22 9 8 32 64 49 32 9 37 12 15 9 -18 -3 -41 -5
-51 -5 -9 0 -33 -11 -53 -24 -20 -14 -34 -19 -31 -12 8 20 86 66 114 66 14 0
52 -11 85 -25 61 -25 83 -20 66 14 -4 9 -6 26 -5 39 1 17 -4 22 -23 22 -13 0
-22 4 -19 9 3 4 -3 18 -13 30 -14 16 -21 18 -24 9 -4 -10 -8 -10 -16 2 -6 8
-11 11 -11 5 0 -19 15 -33 40 -38 14 -2 2 -5 -25 -6 -29 0 -57 4 -64 12 -11
10 -13 10 -7 0 9 -17 6 -17 -48 7 -25 12 -46 25 -46 30 0 6 -7 10 -15 10 -8 0
-15 5 -15 10 0 6 -11 10 -25 10 -23 0 -24 2 -19 44 6 41 4 45 -28 67 -41 29
-43 62 -6 102 24 26 26 34 21 78 -5 43 -3 53 16 70 12 11 25 18 29 15 4 -2 14
0 22 6 12 8 12 9 -3 4 -11 -4 -16 -2 -12 5 10 16 28 5 30 -18 1 -13 -3 -19
-11 -16 -6 2 -15 0 -19 -6 -3 -7 0 -8 9 -5 18 7 65 -41 102 -103 33 -56 84
-112 85 -93 0 11 2 11 6 3 2 -7 14 -13 26 -13 11 0 29 -7 39 -17 14 -13 18
-13 18 -2 0 11 2 11 10 -1 10 -15 11 -13 16 30 1 14 7 39 12 55 5 17 10 59 11
95 2 35 10 80 18 100 10 23 16 71 17 145 1 61 5 116 9 123 5 6 28 12 53 12
l44 0 0 -159z m-430 -101 c0 -5 -5 -10 -11 -10 -5 0 -7 5 -4 10 3 6 8 10 11
10 2 0 4 -4 4 -10z m-180 -144 c-12 -12 -30 2 -30 23 0 29 13 33 26 9 7 -13 9
-27 4 -32z m604 -148 c-9 -17 -22 -50 -29 -72 -12 -36 -13 -38 -14 -13 -1 26
19 76 41 105 18 22 19 13 2 -20z m-1264 -53 c0 -5 -5 -3 -10 5 -5 8 -10 20
-10 25 0 6 5 3 10 -5 5 -8 10 -19 10 -25z m217 -147 c-3 -8 -6 -5 -6 6 -1 11
2 17 5 13 3 -3 4 -12 1 -19z m-20 -20 c-3 -8 -6 -5 -6 6 -1 11 2 17 5 13 3 -3
4 -12 1 -19z m853 -13 c10 -12 10 -15 -3 -15 -8 0 -17 7 -21 15 -3 8 -2 15 3
15 5 0 14 -7 21 -15z m-843 -67 c-2 -13 -4 -5 -4 17 -1 22 1 32 4 23 2 -10 2
-28 0 -40z m783 -48 c-8 -5 -19 -10 -25 -10 -5 0 -3 5 5 10 8 5 20 10 25 10 6
0 3 -5 -5 -10z m85 -13 c6 0 12 -10 13 -21 1 -14 -1 -17 -7 -8 -4 7 -12 12
-17 11 -5 -1 -22 -1 -39 0 -29 2 -29 2 -10 17 11 8 26 12 35 8 8 -3 20 -7 25
-7z m101 -117 c8 0 22 -4 32 -9 9 -6 42 -18 72 -28 l55 -18 -50 -6 c-45 -5
-46 -6 -12 -7 36 -2 54 -21 20 -23 -10 0 -2 -6 17 -14 l35 -13 -40 -4 -40 -4
33 -8 c35 -9 44 -39 15 -50 -21 -8 -420 -7 -441 2 -9 3 34 16 97 28 117 23
140 36 141 80 0 12 6 27 14 33 8 7 17 24 21 39 4 15 10 21 12 15 3 -7 11 -13
19 -13z m-1019 -122 c-3 -8 -6 -5 -6 6 -1 11 2 17 5 13 3 -3 4 -12 1 -19z"/>
<path d="M1096 1057 c3 -10 9 -15 12 -12 3 3 0 11 -7 18 -10 9 -11 8 -5 -6z"/>
<path d="M1085 1021 c-3 -5 -1 -12 5 -16 5 -3 10 1 10 9 0 18 -6 21 -15 7z"/>
<path d="M1506 667 c3 -10 9 -15 12 -12 3 3 0 11 -7 18 -10 9 -11 8 -5 -6z"/>
<path d="M1536 645 c2 -11 4 -32 4 -47 0 -16 4 -28 10 -28 5 0 9 16 8 35 -1
19 -5 35 -9 35 -4 0 -9 6 -12 13 -2 6 -3 3 -1 -8z"/>
<path d="M970 1416 c0 -2 8 -10 18 -17 15 -13 16 -12 3 4 -13 16 -21 21 -21
13z"/>
<path d="M437 643 c-4 -3 -7 -21 -7 -39 0 -28 3 -31 23 -26 19 5 20 7 4 10
-15 3 -18 11 -15 33 5 31 5 32 -5 22z"/>
<path d="M453 183 c9 -2 25 -2 35 0 9 3 1 5 -18 5 -19 0 -27 -2 -17 -5z"/>
</g>
</svg>
